<svg width="413" height="733" viewBox="0 0 413 733" fill="none" xmlns="http://www.w3.org/2000/svg">
<g clip-path="url(#clip0)">
<rect width="411" height="731" transform="matrix(-1 0 0 1 412 1)" fill="#F8F8F8"/>
<g filter="url(#filter0_d)">
<rect x="214" y="123" width="180" height="55" fill="#448AFF"/>
</g>
<rect x="1" y="1" width="411" height="107" fill="#83B9FF"/>
<path d="M29 74V88H15V74H29ZM30.1 72H13.9C13.4 72 13 72.4 13 72.9V89.1C13 89.5 13.4 90 13.9 90H30.1C30.5 90 31 89.5 31 89.1V72.9C31 72.4 30.5 72 30.1 72ZM21 76H27V78H21V76ZM21 80H27V82H21V80ZM21 84H27V86H21V84ZM17 76H19V78H17V76ZM17 80H19V82H17V80ZM17 84H19V86H17V84Z" fill="white" fill-opacity="0.5"/>
<g filter="url(#filter1_d)">
<path d="M20.5426 37.216C19.8106 37.216 19.1326 37.078 18.5086 36.802C17.8846 36.526 17.3386 36.13 16.8706 35.614C16.4146 35.086 16.0546 34.444 15.7906 33.688C15.5266 32.92 15.3946 32.056 15.3946 31.096C15.3946 30.148 15.5266 29.296 15.7906 28.54C16.0546 27.784 16.4206 27.142 16.8886 26.614C17.3566 26.086 17.9146 25.684 18.5626 25.408C19.2106 25.12 19.9186 24.976 20.6866 24.976C21.3946 24.976 22.0186 25.12 22.5586 25.408C23.1106 25.696 23.5606 26.032 23.9086 26.416L23.0626 27.37C22.7506 27.046 22.4026 26.788 22.0186 26.596C21.6346 26.392 21.1906 26.29 20.6866 26.29C20.1226 26.29 19.6066 26.404 19.1386 26.632C18.6826 26.848 18.2926 27.166 17.9686 27.586C17.6446 27.994 17.3926 28.492 17.2126 29.08C17.0326 29.668 16.9426 30.328 16.9426 31.06C16.9426 31.804 17.0326 32.476 17.2126 33.076C17.3926 33.664 17.6446 34.168 17.9686 34.588C18.2926 35.008 18.6826 35.332 19.1386 35.56C19.6066 35.788 20.1226 35.902 20.6866 35.902C21.2266 35.902 21.7066 35.788 22.1266 35.56C22.5586 35.332 22.9666 35.008 23.3506 34.588L24.1966 35.506C23.7286 36.046 23.2006 36.466 22.6126 36.766C22.0246 37.066 21.3346 37.216 20.5426 37.216ZM26.4396 37V25.192H27.9516V30.142H32.8836V25.192H34.3956V37H32.8836V31.438H27.9516V37H26.4396ZM39.9865 30.394L39.4285 32.194H42.9565L42.3985 30.394C42.1945 29.734 41.9905 29.08 41.7865 28.432C41.5945 27.772 41.4085 27.1 41.2285 26.416H41.1565C40.9645 27.1 40.7725 27.772 40.5805 28.432C40.3885 29.08 40.1905 29.734 39.9865 30.394ZM36.3865 37L40.3645 25.192H42.0565L46.0345 37H44.4505L43.3345 33.4H39.0505L37.9165 37H36.3865ZM48.0795 37V25.192H49.7355L53.5155 32.608L54.6495 35.056H54.6855C54.6615 34.468 54.6195 33.856 54.5595 33.22C54.5115 32.572 54.4875 31.936 54.4875 31.312V25.192H55.9275V37H54.2715L50.4915 29.584L49.3575 27.136H49.3215C49.3455 27.748 49.3815 28.366 49.4295 28.99C49.4895 29.602 49.5195 30.214 49.5195 30.826V37H48.0795ZM63.4625 37.216C62.7185 37.216 62.0345 37.078 61.4105 36.802C60.7865 36.526 60.2465 36.13 59.7905 35.614C59.3345 35.086 58.9805 34.444 58.7285 33.688C58.4765 32.92 58.3505 32.056 58.3505 31.096C58.3505 30.148 58.4765 29.296 58.7285 28.54C58.9925 27.772 59.3525 27.13 59.8085 26.614C60.2765 26.086 60.8285 25.684 61.4645 25.408C62.1125 25.12 62.8205 24.976 63.5885 24.976C63.9845 24.976 64.3445 25.018 64.6685 25.102C64.9925 25.186 65.2865 25.3 65.5505 25.444C65.8265 25.576 66.0665 25.726 66.2705 25.894C66.4865 26.062 66.6785 26.236 66.8465 26.416L66.0005 27.37C65.7125 27.058 65.3825 26.8 65.0105 26.596C64.6385 26.392 64.1645 26.29 63.5885 26.29C63.0365 26.29 62.5325 26.404 62.0765 26.632C61.6325 26.848 61.2485 27.166 60.9245 27.586C60.6005 27.994 60.3485 28.492 60.1685 29.08C60.0005 29.668 59.9165 30.328 59.9165 31.06C59.9165 31.804 59.9945 32.476 60.1505 33.076C60.3185 33.664 60.5525 34.168 60.8525 34.588C61.1645 35.008 61.5485 35.332 62.0045 35.56C62.4605 35.788 62.9765 35.902 63.5525 35.902C63.9725 35.902 64.3625 35.842 64.7225 35.722C65.0825 35.59 65.3765 35.416 65.6045 35.2V32.122H63.2465V30.88H66.9905V35.848C66.6185 36.232 66.1265 36.556 65.5145 36.82C64.9145 37.084 64.2305 37.216 63.4625 37.216ZM70.2415 37V25.192H77.5495V26.452H71.7535V30.16H76.6495V31.438H71.7535V35.722H77.7295V37H70.2415ZM84.4724 37.216C83.6084 37.216 82.8104 37.06 82.0784 36.748C81.3584 36.436 80.7284 36.01 80.1884 35.47L81.0884 34.426C81.5324 34.87 82.0484 35.23 82.6364 35.506C83.2244 35.77 83.8604 35.902 84.5444 35.902C85.3604 35.902 85.9904 35.728 86.4344 35.38C86.8904 35.032 87.1184 34.582 87.1184 34.03C87.1184 33.718 87.0644 33.454 86.9564 33.238C86.8484 33.022 86.6984 32.836 86.5064 32.68C86.3144 32.524 86.0864 32.386 85.8224 32.266C85.5704 32.146 85.2944 32.02 84.9944 31.888L83.3024 31.15C83.0024 31.03 82.7024 30.886 82.4024 30.718C82.1024 30.55 81.8264 30.346 81.5744 30.106C81.3344 29.866 81.1364 29.584 80.9804 29.26C80.8244 28.924 80.7464 28.54 80.7464 28.108C80.7464 27.664 80.8424 27.25 81.0344 26.866C81.2264 26.482 81.4904 26.152 81.8264 25.876C82.1744 25.588 82.5824 25.366 83.0504 25.21C83.5304 25.054 84.0524 24.976 84.6164 24.976C85.3604 24.976 86.0444 25.114 86.6684 25.39C87.2924 25.654 87.8204 26.002 88.2524 26.434L87.4604 27.406C87.0764 27.058 86.6504 26.788 86.1824 26.596C85.7144 26.392 85.1744 26.29 84.5624 26.29C83.8784 26.29 83.3264 26.446 82.9064 26.758C82.4864 27.058 82.2764 27.478 82.2764 28.018C82.2764 28.306 82.3364 28.552 82.4564 28.756C82.5884 28.948 82.7504 29.122 82.9424 29.278C83.1464 29.422 83.3744 29.548 83.6264 29.656C83.8784 29.764 84.1304 29.872 84.3824 29.98L86.0384 30.7C86.3984 30.844 86.7344 31.012 87.0464 31.204C87.3704 31.384 87.6464 31.6 87.8744 31.852C88.1144 32.092 88.3004 32.38 88.4324 32.716C88.5764 33.04 88.6484 33.418 88.6484 33.85C88.6484 34.318 88.5524 34.756 88.3604 35.164C88.1684 35.572 87.8924 35.932 87.5324 36.244C87.1724 36.544 86.7344 36.784 86.2184 36.964C85.7024 37.132 85.1204 37.216 84.4724 37.216Z" fill="white"/>
</g>
<path d="M387 26C388.1 26 389 25.1 389 24C389 22.9 388.1 22 387 22C385.9 22 385 22.9 385 24C385 25.1 385.9 26 387 26ZM387 28C385.9 28 385 28.9 385 30C385 31.1 385.9 32 387 32C388.1 32 389 31.1 389 30C389 28.9 388.1 28 387 28ZM387 34C385.9 34 385 34.9 385 36C385 37.1 385.9 38 387 38C388.1 38 389 37.1 389 36C389 34.9 388.1 34 387 34Z" fill="white" fill-opacity="0.5"/>
<path d="M118 72H117V70H115V72H105V70H103V72H102C100.9 72 100 72.9 100 74V90C100 91.1 100.9 92 102 92H118C119.1 92 120 91.1 120 90V74C120 72.9 119.1 72 118 72ZM118 90H102V77H118V90Z" fill="white" fill-opacity="0.5"/>
<path d="M202 92L201.99 86L198 82L201.99 77.99L202 72H190V78L194 82L190 85.99V92H202ZM192 77.5V74H200V77.5L196 81.5L192 77.5Z" fill="white"/>
<path d="M373 79.3V74H370V76.6L366 73L356 82H359V90H364V84H368V90H373V82H376L373 79.3ZM364 80C364 78.9 364.9 78 366 78C367.1 78 368 78.9 368 80H364Z" fill="white" fill-opacity="0.5"/>
<path d="M278.546 78H289.184V80H278.546V78ZM278.546 76H289.184V74H278.546V76ZM278.546 84H285.315V82H278.546V84ZM293.061 80.87L293.748 80.16C294.125 79.77 294.734 79.77 295.112 80.16L295.798 80.87C296.175 81.26 296.175 81.89 295.798 82.28L295.112 82.99L293.061 80.87ZM292.375 81.58L287.249 86.88V89H289.3L294.425 83.7L292.375 81.58Z" fill="white" fill-opacity="0.5"/>
<g filter="url(#filter2_d)">
<line x1="167.038" y1="107.5" x2="232.038" y2="108.5" stroke="white" stroke-width="5"/>
</g>
<g filter="url(#filter3_d)">
<circle cx="354" cy="678" r="25" fill="#FF8A80"/>
</g>
<g filter="url(#filter4_d)">
<path d="M361 679H355V685H353V679H347V677H353V671H355V677H361V679Z" fill="black"/>
</g>
<path d="M281.662 157V146.452H277.774V145.192H287.062V146.452H283.174V157H281.662ZM289.521 157V155.722H292.455V146.452H289.521V145.192H296.901V146.452H293.967V155.722H296.901V157H289.521ZM299.9 157V145.192H301.736L303.392 150.232L303.968 152.14H304.04L304.598 150.232L306.272 145.192H308.108V157H306.668V151.096C306.668 150.808 306.674 150.478 306.686 150.106C306.71 149.722 306.734 149.338 306.758 148.954C306.794 148.57 306.824 148.198 306.848 147.838C306.872 147.478 306.896 147.172 306.92 146.92H306.866L306.2 149.224L304.508 153.868H303.428L301.772 149.224L301.088 146.92H301.052C301.076 147.172 301.1 147.478 301.124 147.838C301.16 148.198 301.19 148.57 301.214 148.954C301.238 149.338 301.256 149.722 301.268 150.106C301.292 150.478 301.304 150.808 301.304 151.096V157H299.9ZM311.448 157V145.192H318.756V146.452H312.96V150.16H317.856V151.438H312.96V155.722H318.936V157H311.448ZM321.989 157V145.192H325.661C326.261 145.192 326.813 145.252 327.317 145.372C327.821 145.48 328.253 145.666 328.613 145.93C328.985 146.194 329.273 146.536 329.477 146.956C329.681 147.376 329.783 147.892 329.783 148.504C329.783 149.428 329.543 150.166 329.063 150.718C328.583 151.27 327.941 151.648 327.137 151.852L330.143 157H328.433L325.589 152.014H323.483V157H321.989ZM323.483 150.79H325.445C326.369 150.79 327.071 150.604 327.551 150.232C328.043 149.848 328.289 149.272 328.289 148.504C328.289 147.724 328.043 147.178 327.551 146.866C327.071 146.554 326.369 146.398 325.445 146.398H323.483V150.79Z" fill="white"/>
<g filter="url(#filter5_d)">
<rect x="18" y="237" width="376" height="97" fill="white"/>
</g>
<path d="M106.07 286.36C103.93 286.36 102.25 285.5 101.03 283.78C99.8103 282.04 99.2003 279.57 99.2003 276.37C99.2003 273.15 99.8103 270.7 101.03 269.02C102.25 267.34 103.93 266.5 106.07 266.5C108.21 266.5 109.89 267.34 111.11 269.02C112.33 270.7 112.94 273.15 112.94 276.37C112.94 279.57 112.33 282.04 111.11 283.78C109.89 285.5 108.21 286.36 106.07 286.36ZM106.07 284.38C107.41 284.38 108.5 283.73 109.34 282.43C110.2 281.13 110.63 279.11 110.63 276.37C110.63 274.99 110.52 273.81 110.3 272.83C110.08 271.83 109.76 271.01 109.34 270.37C108.94 269.71 108.46 269.23 107.9 268.93C107.34 268.63 106.73 268.48 106.07 268.48C105.41 268.48 104.8 268.63 104.24 268.93C103.68 269.23 103.19 269.71 102.77 270.37C102.37 271.01 102.06 271.83 101.84 272.83C101.62 273.81 101.51 274.99 101.51 276.37C101.51 279.11 101.93 281.13 102.77 282.43C103.63 283.73 104.73 284.38 106.07 284.38ZM106.07 278.17C105.57 278.17 105.13 278 104.75 277.66C104.39 277.3 104.21 276.8 104.21 276.16C104.21 275.54 104.39 275.06 104.75 274.72C105.13 274.36 105.57 274.18 106.07 274.18C106.57 274.18 107 274.36 107.36 274.72C107.74 275.06 107.93 275.54 107.93 276.16C107.93 276.8 107.74 277.3 107.36 277.66C107 278 106.57 278.17 106.07 278.17ZM124.059 286.36C121.919 286.36 120.239 285.5 119.019 283.78C117.799 282.04 117.189 279.57 117.189 276.37C117.189 273.15 117.799 270.7 119.019 269.02C120.239 267.34 121.919 266.5 124.059 266.5C126.199 266.5 127.879 267.34 129.099 269.02C130.319 270.7 130.929 273.15 130.929 276.37C130.929 279.57 130.319 282.04 129.099 283.78C127.879 285.5 126.199 286.36 124.059 286.36ZM124.059 284.38C125.399 284.38 126.489 283.73 127.329 282.43C128.189 281.13 128.619 279.11 128.619 276.37C128.619 274.99 128.509 273.81 128.289 272.83C128.069 271.83 127.749 271.01 127.329 270.37C126.929 269.71 126.449 269.23 125.889 268.93C125.329 268.63 124.719 268.48 124.059 268.48C123.399 268.48 122.789 268.63 122.229 268.93C121.669 269.23 121.179 269.71 120.759 270.37C120.359 271.01 120.049 271.83 119.829 272.83C119.609 273.81 119.499 274.99 119.499 276.37C119.499 279.11 119.919 281.13 120.759 282.43C121.619 283.73 122.719 284.38 124.059 284.38ZM124.059 278.17C123.559 278.17 123.119 278 122.739 277.66C122.379 277.3 122.199 276.8 122.199 276.16C122.199 275.54 122.379 275.06 122.739 274.72C123.119 274.36 123.559 274.18 124.059 274.18C124.559 274.18 124.989 274.36 125.349 274.72C125.729 275.06 125.919 275.54 125.919 276.16C125.919 276.8 125.729 277.3 125.349 277.66C124.989 278 124.559 278.17 124.059 278.17ZM160.035 275.62C159.355 275.62 158.775 275.39 158.295 274.93C157.835 274.47 157.605 273.86 157.605 273.1C157.605 272.34 157.835 271.73 158.295 271.27C158.775 270.79 159.355 270.55 160.035 270.55C160.715 270.55 161.285 270.79 161.745 271.27C162.225 271.73 162.465 272.34 162.465 273.1C162.465 273.86 162.225 274.47 161.745 274.93C161.285 275.39 160.715 275.62 160.035 275.62ZM160.035 286.36C159.355 286.36 158.775 286.13 158.295 285.67C157.835 285.21 157.605 284.6 157.605 283.84C157.605 283.08 157.835 282.47 158.295 282.01C158.775 281.53 159.355 281.29 160.035 281.29C160.715 281.29 161.285 281.53 161.745 282.01C162.225 282.47 162.465 283.08 162.465 283.84C162.465 284.6 162.225 285.21 161.745 285.67C161.285 286.13 160.715 286.36 160.035 286.36ZM196.012 286.36C193.872 286.36 192.192 285.5 190.972 283.78C189.752 282.04 189.142 279.57 189.142 276.37C189.142 273.15 189.752 270.7 190.972 269.02C192.192 267.34 193.872 266.5 196.012 266.5C198.152 266.5 199.832 267.34 201.052 269.02C202.272 270.7 202.882 273.15 202.882 276.37C202.882 279.57 202.272 282.04 201.052 283.78C199.832 285.5 198.152 286.36 196.012 286.36ZM196.012 284.38C197.352 284.38 198.442 283.73 199.282 282.43C200.142 281.13 200.572 279.11 200.572 276.37C200.572 274.99 200.462 273.81 200.242 272.83C200.022 271.83 199.702 271.01 199.282 270.37C198.882 269.71 198.402 269.23 197.842 268.93C197.282 268.63 196.672 268.48 196.012 268.48C195.352 268.48 194.742 268.63 194.182 268.93C193.622 269.23 193.132 269.71 192.712 270.37C192.312 271.01 192.002 271.83 191.782 272.83C191.562 273.81 191.452 274.99 191.452 276.37C191.452 279.11 191.872 281.13 192.712 282.43C193.572 283.73 194.672 284.38 196.012 284.38ZM196.012 278.17C195.512 278.17 195.072 278 194.692 277.66C194.332 277.3 194.152 276.8 194.152 276.16C194.152 275.54 194.332 275.06 194.692 274.72C195.072 274.36 195.512 274.18 196.012 274.18C196.512 274.18 196.942 274.36 197.302 274.72C197.682 275.06 197.872 275.54 197.872 276.16C197.872 276.8 197.682 277.3 197.302 277.66C196.942 278 196.512 278.17 196.012 278.17ZM213.43 276.7C214.19 276.7 215 276.5 215.86 276.1C216.72 275.7 217.54 275.05 218.32 274.15C218.12 272.27 217.6 270.85 216.76 269.89C215.94 268.93 214.82 268.45 213.4 268.45C212.82 268.45 212.28 268.55 211.78 268.75C211.3 268.95 210.88 269.24 210.52 269.62C210.16 269.98 209.87 270.42 209.65 270.94C209.45 271.46 209.35 272.03 209.35 272.65C209.35 273.97 209.69 274.98 210.37 275.68C211.07 276.36 212.09 276.7 213.43 276.7ZM212.71 286.36C211.53 286.36 210.5 286.17 209.62 285.79C208.76 285.41 208.01 284.93 207.37 284.35L208.75 282.79C209.23 283.25 209.8 283.62 210.46 283.9C211.12 284.18 211.82 284.32 212.56 284.32C213.32 284.32 214.04 284.18 214.72 283.9C215.42 283.62 216.03 283.16 216.55 282.52C217.09 281.86 217.52 281.01 217.84 279.97C218.16 278.93 218.34 277.64 218.38 276.1C217.6 276.86 216.74 277.46 215.8 277.9C214.88 278.34 213.93 278.56 212.95 278.56C212.07 278.56 211.26 278.44 210.52 278.2C209.8 277.94 209.18 277.57 208.66 277.09C208.14 276.59 207.73 275.97 207.43 275.23C207.15 274.49 207.01 273.63 207.01 272.65C207.01 271.73 207.18 270.9 207.52 270.16C207.86 269.4 208.32 268.75 208.9 268.21C209.5 267.67 210.18 267.25 210.94 266.95C211.72 266.65 212.53 266.5 213.37 266.5C214.41 266.5 215.38 266.69 216.28 267.07C217.18 267.45 217.96 268.03 218.62 268.81C219.28 269.57 219.79 270.53 220.15 271.69C220.53 272.83 220.72 274.17 220.72 275.71C220.72 277.63 220.49 279.27 220.03 280.63C219.59 281.97 219 283.07 218.26 283.93C217.52 284.77 216.67 285.39 215.71 285.79C214.75 286.17 213.75 286.36 212.71 286.36ZM249.977 275.62C249.297 275.62 248.717 275.39 248.237 274.93C247.777 274.47 247.547 273.86 247.547 273.1C247.547 272.34 247.777 271.73 248.237 271.27C248.717 270.79 249.297 270.55 249.977 270.55C250.657 270.55 251.227 270.79 251.687 271.27C252.167 271.73 252.407 272.34 252.407 273.1C252.407 273.86 252.167 274.47 251.687 274.93C251.227 275.39 250.657 275.62 249.977 275.62ZM249.977 286.36C249.297 286.36 248.717 286.13 248.237 285.67C247.777 285.21 247.547 284.6 247.547 283.84C247.547 283.08 247.777 282.47 248.237 282.01C248.717 281.53 249.297 281.29 249.977 281.29C250.657 281.29 251.227 281.53 251.687 282.01C252.167 282.47 252.407 283.08 252.407 283.84C252.407 284.6 252.167 285.21 251.687 285.67C251.227 286.13 250.657 286.36 249.977 286.36ZM285.533 286.36C284.673 286.36 283.893 286.28 283.193 286.12C282.513 285.98 281.893 285.79 281.333 285.55C280.793 285.31 280.293 285.04 279.833 284.74C279.393 284.42 278.993 284.09 278.633 283.75L279.863 282.13C280.183 282.41 280.523 282.69 280.883 282.97C281.243 283.23 281.633 283.46 282.053 283.66C282.493 283.86 282.973 284.02 283.493 284.14C284.033 284.26 284.623 284.32 285.263 284.32C285.943 284.32 286.573 284.22 287.153 284.02C287.753 283.8 288.273 283.5 288.713 283.12C289.153 282.74 289.493 282.28 289.733 281.74C289.993 281.2 290.123 280.6 290.123 279.94C290.123 278.62 289.693 277.59 288.833 276.85C287.993 276.11 286.853 275.74 285.413 275.74C284.613 275.74 283.933 275.84 283.373 276.04C282.813 276.24 282.193 276.53 281.513 276.91L280.193 276.07L280.823 266.86H291.653V268.99H283.013L282.503 274.66C283.063 274.42 283.603 274.23 284.123 274.09C284.663 273.95 285.303 273.88 286.043 273.88C286.963 273.88 287.823 274 288.623 274.24C289.423 274.48 290.113 274.85 290.693 275.35C291.293 275.83 291.763 276.45 292.103 277.21C292.443 277.95 292.613 278.84 292.613 279.88C292.613 280.92 292.413 281.84 292.013 282.64C291.633 283.44 291.113 284.12 290.453 284.68C289.793 285.22 289.033 285.64 288.173 285.94C287.333 286.22 286.453 286.36 285.533 286.36ZM303.521 286.36C302.661 286.36 301.881 286.28 301.181 286.12C300.501 285.98 299.881 285.79 299.321 285.55C298.781 285.31 298.281 285.04 297.821 284.74C297.381 284.42 296.981 284.09 296.621 283.75L297.851 282.13C298.171 282.41 298.511 282.69 298.871 282.97C299.231 283.23 299.621 283.46 300.041 283.66C300.481 283.86 300.961 284.02 301.481 284.14C302.021 284.26 302.611 284.32 303.251 284.32C303.931 284.32 304.561 284.22 305.141 284.02C305.741 283.8 306.261 283.5 306.701 283.12C307.141 282.74 307.481 282.28 307.721 281.74C307.981 281.2 308.111 280.6 308.111 279.94C308.111 278.62 307.681 277.59 306.821 276.85C305.981 276.11 304.841 275.74 303.401 275.74C302.601 275.74 301.921 275.84 301.361 276.04C300.801 276.24 300.181 276.53 299.501 276.91L298.181 276.07L298.811 266.86H309.641V268.99H301.001L300.491 274.66C301.051 274.42 301.591 274.23 302.111 274.09C302.651 273.95 303.291 273.88 304.031 273.88C304.951 273.88 305.811 274 306.611 274.24C307.411 274.48 308.101 274.85 308.681 275.35C309.281 275.83 309.751 276.45 310.091 277.21C310.431 277.95 310.601 278.84 310.601 279.88C310.601 280.92 310.401 281.84 310.001 282.64C309.621 283.44 309.101 284.12 308.441 284.68C307.781 285.22 307.021 285.64 306.161 285.94C305.321 286.22 304.441 286.36 303.521 286.36Z" fill="black"/>
<path d="M186.675 312V326L197.313 319L186.675 312Z" fill="black"/>
<path d="M206.016 326H209.885V312H206.016V326ZM213.753 312V326H217.621V312H213.753Z" fill="black"/>
<path d="M231.16 313H242.765V325H231.16V313Z" fill="black"/>
<g filter="url(#filter6_d)">
<rect x="18" y="353" width="376" height="97" fill="white"/>
</g>
<path d="M106.07 405.36C103.93 405.36 102.25 404.5 101.03 402.78C99.8103 401.04 99.2003 398.57 99.2003 395.37C99.2003 392.15 99.8103 389.7 101.03 388.02C102.25 386.34 103.93 385.5 106.07 385.5C108.21 385.5 109.89 386.34 111.11 388.02C112.33 389.7 112.94 392.15 112.94 395.37C112.94 398.57 112.33 401.04 111.11 402.78C109.89 404.5 108.21 405.36 106.07 405.36ZM106.07 403.38C107.41 403.38 108.5 402.73 109.34 401.43C110.2 400.13 110.63 398.11 110.63 395.37C110.63 393.99 110.52 392.81 110.3 391.83C110.08 390.83 109.76 390.01 109.34 389.37C108.94 388.71 108.46 388.23 107.9 387.93C107.34 387.63 106.73 387.48 106.07 387.48C105.41 387.48 104.8 387.63 104.24 387.93C103.68 388.23 103.19 388.71 102.77 389.37C102.37 390.01 102.06 390.83 101.84 391.83C101.62 392.81 101.51 393.99 101.51 395.37C101.51 398.11 101.93 400.13 102.77 401.43C103.63 402.73 104.73 403.38 106.07 403.38ZM106.07 397.17C105.57 397.17 105.13 397 104.75 396.66C104.39 396.3 104.21 395.8 104.21 395.16C104.21 394.54 104.39 394.06 104.75 393.72C105.13 393.36 105.57 393.18 106.07 393.18C106.57 393.18 107 393.36 107.36 393.72C107.74 394.06 107.93 394.54 107.93 395.16C107.93 395.8 107.74 396.3 107.36 396.66C107 397 106.57 397.17 106.07 397.17ZM124.059 405.36C121.919 405.36 120.239 404.5 119.019 402.78C117.799 401.04 117.189 398.57 117.189 395.37C117.189 392.15 117.799 389.7 119.019 388.02C120.239 386.34 121.919 385.5 124.059 385.5C126.199 385.5 127.879 386.34 129.099 388.02C130.319 389.7 130.929 392.15 130.929 395.37C130.929 398.57 130.319 401.04 129.099 402.78C127.879 404.5 126.199 405.36 124.059 405.36ZM124.059 403.38C125.399 403.38 126.489 402.73 127.329 401.43C128.189 400.13 128.619 398.11 128.619 395.37C128.619 393.99 128.509 392.81 128.289 391.83C128.069 390.83 127.749 390.01 127.329 389.37C126.929 388.71 126.449 388.23 125.889 387.93C125.329 387.63 124.719 387.48 124.059 387.48C123.399 387.48 122.789 387.63 122.229 387.93C121.669 388.23 121.179 388.71 120.759 389.37C120.359 390.01 120.049 390.83 119.829 391.83C119.609 392.81 119.499 393.99 119.499 395.37C119.499 398.11 119.919 400.13 120.759 401.43C121.619 402.73 122.719 403.38 124.059 403.38ZM124.059 397.17C123.559 397.17 123.119 397 122.739 396.66C122.379 396.3 122.199 395.8 122.199 395.16C122.199 394.54 122.379 394.06 122.739 393.72C123.119 393.36 123.559 393.18 124.059 393.18C124.559 393.18 124.989 393.36 125.349 393.72C125.729 394.06 125.919 394.54 125.919 395.16C125.919 395.8 125.729 396.3 125.349 396.66C124.989 397 124.559 397.17 124.059 397.17ZM160.035 394.62C159.355 394.62 158.775 394.39 158.295 393.93C157.835 393.47 157.605 392.86 157.605 392.1C157.605 391.34 157.835 390.73 158.295 390.27C158.775 389.79 159.355 389.55 160.035 389.55C160.715 389.55 161.285 389.79 161.745 390.27C162.225 390.73 162.465 391.34 162.465 392.1C162.465 392.86 162.225 393.47 161.745 393.93C161.285 394.39 160.715 394.62 160.035 394.62ZM160.035 405.36C159.355 405.36 158.775 405.13 158.295 404.67C157.835 404.21 157.605 403.6 157.605 402.84C157.605 402.08 157.835 401.47 158.295 401.01C158.775 400.53 159.355 400.29 160.035 400.29C160.715 400.29 161.285 400.53 161.745 401.01C162.225 401.47 162.465 402.08 162.465 402.84C162.465 403.6 162.225 404.21 161.745 404.67C161.285 405.13 160.715 405.36 160.035 405.36ZM196.012 405.36C193.872 405.36 192.192 404.5 190.972 402.78C189.752 401.04 189.142 398.57 189.142 395.37C189.142 392.15 189.752 389.7 190.972 388.02C192.192 386.34 193.872 385.5 196.012 385.5C198.152 385.5 199.832 386.34 201.052 388.02C202.272 389.7 202.882 392.15 202.882 395.37C202.882 398.57 202.272 401.04 201.052 402.78C199.832 404.5 198.152 405.36 196.012 405.36ZM196.012 403.38C197.352 403.38 198.442 402.73 199.282 401.43C200.142 400.13 200.572 398.11 200.572 395.37C200.572 393.99 200.462 392.81 200.242 391.83C200.022 390.83 199.702 390.01 199.282 389.37C198.882 388.71 198.402 388.23 197.842 387.93C197.282 387.63 196.672 387.48 196.012 387.48C195.352 387.48 194.742 387.63 194.182 387.93C193.622 388.23 193.132 388.71 192.712 389.37C192.312 390.01 192.002 390.83 191.782 391.83C191.562 392.81 191.452 393.99 191.452 395.37C191.452 398.11 191.872 400.13 192.712 401.43C193.572 402.73 194.672 403.38 196.012 403.38ZM196.012 397.17C195.512 397.17 195.072 397 194.692 396.66C194.332 396.3 194.152 395.8 194.152 395.16C194.152 394.54 194.332 394.06 194.692 393.72C195.072 393.36 195.512 393.18 196.012 393.18C196.512 393.18 196.942 393.36 197.302 393.72C197.682 394.06 197.872 394.54 197.872 395.16C197.872 395.8 197.682 396.3 197.302 396.66C196.942 397 196.512 397.17 196.012 397.17ZM207.19 405V403.53C208.81 402.09 210.24 400.79 211.48 399.63C212.74 398.47 213.79 397.41 214.63 396.45C215.49 395.47 216.14 394.56 216.58 393.72C217.02 392.88 217.24 392.06 217.24 391.26C217.24 390.16 216.9 389.26 216.22 388.56C215.54 387.86 214.49 387.51 213.07 387.51C212.17 387.51 211.33 387.74 210.55 388.2C209.79 388.64 209.1 389.18 208.48 389.82L207.07 388.41C207.93 387.53 208.85 386.83 209.83 386.31C210.83 385.77 212.01 385.5 213.37 385.5C214.33 385.5 215.19 385.64 215.95 385.92C216.73 386.18 217.39 386.56 217.93 387.06C218.47 387.54 218.88 388.13 219.16 388.83C219.46 389.53 219.61 390.3 219.61 391.14C219.61 392.04 219.39 392.95 218.95 393.87C218.53 394.77 217.93 395.71 217.15 396.69C216.37 397.65 215.44 398.66 214.36 399.72C213.28 400.76 212.09 401.87 210.79 403.05C211.39 403.01 211.99 402.97 212.59 402.93C213.19 402.89 213.78 402.87 214.36 402.87H220.66V405H207.19ZM249.977 394.62C249.297 394.62 248.717 394.39 248.237 393.93C247.777 393.47 247.547 392.86 247.547 392.1C247.547 391.34 247.777 390.73 248.237 390.27C248.717 389.79 249.297 389.55 249.977 389.55C250.657 389.55 251.227 389.79 251.687 390.27C252.167 390.73 252.407 391.34 252.407 392.1C252.407 392.86 252.167 393.47 251.687 393.93C251.227 394.39 250.657 394.62 249.977 394.62ZM249.977 405.36C249.297 405.36 248.717 405.13 248.237 404.67C247.777 404.21 247.547 403.6 247.547 402.84C247.547 402.08 247.777 401.47 248.237 401.01C248.717 400.53 249.297 400.29 249.977 400.29C250.657 400.29 251.227 400.53 251.687 401.01C252.167 401.47 252.407 402.08 252.407 402.84C252.407 403.6 252.167 404.21 251.687 404.67C251.227 405.13 250.657 405.36 249.977 405.36ZM285.953 405.36C283.813 405.36 282.133 404.5 280.913 402.78C279.693 401.04 279.083 398.57 279.083 395.37C279.083 392.15 279.693 389.7 280.913 388.02C282.133 386.34 283.813 385.5 285.953 385.5C288.093 385.5 289.773 386.34 290.993 388.02C292.213 389.7 292.823 392.15 292.823 395.37C292.823 398.57 292.213 401.04 290.993 402.78C289.773 404.5 288.093 405.36 285.953 405.36ZM285.953 403.38C287.293 403.38 288.383 402.73 289.223 401.43C290.083 400.13 290.513 398.11 290.513 395.37C290.513 393.99 290.403 392.81 290.183 391.83C289.963 390.83 289.643 390.01 289.223 389.37C288.823 388.71 288.343 388.23 287.783 387.93C287.223 387.63 286.613 387.48 285.953 387.48C285.293 387.48 284.683 387.63 284.123 387.93C283.563 388.23 283.073 388.71 282.653 389.37C282.253 390.01 281.943 390.83 281.723 391.83C281.503 392.81 281.393 393.99 281.393 395.37C281.393 398.11 281.813 400.13 282.653 401.43C283.513 402.73 284.613 403.38 285.953 403.38ZM285.953 397.17C285.453 397.17 285.013 397 284.633 396.66C284.273 396.3 284.093 395.8 284.093 395.16C284.093 394.54 284.273 394.06 284.633 393.72C285.013 393.36 285.453 393.18 285.953 393.18C286.453 393.18 286.883 393.36 287.243 393.72C287.623 394.06 287.813 394.54 287.813 395.16C287.813 395.8 287.623 396.3 287.243 396.66C286.883 397 286.453 397.17 285.953 397.17ZM303.551 405.36C301.891 405.36 300.501 405.09 299.381 404.55C298.261 403.99 297.351 403.36 296.651 402.66L297.911 401.04C298.551 401.64 299.311 402.17 300.191 402.63C301.091 403.09 302.161 403.32 303.401 403.32C304.061 403.32 304.671 403.24 305.231 403.08C305.791 402.9 306.271 402.66 306.671 402.36C307.091 402.06 307.411 401.7 307.631 401.28C307.871 400.84 307.991 400.35 307.991 399.81C307.991 399.25 307.861 398.74 307.601 398.28C307.361 397.8 306.961 397.39 306.401 397.05C305.841 396.71 305.121 396.45 304.241 396.27C303.361 396.09 302.291 396 301.031 396V394.11C302.171 394.11 303.131 394.02 303.911 393.84C304.711 393.66 305.361 393.41 305.861 393.09C306.361 392.77 306.721 392.39 306.941 391.95C307.181 391.51 307.301 391.04 307.301 390.54C307.301 389.6 306.941 388.86 306.221 388.32C305.521 387.78 304.581 387.51 303.401 387.51C302.501 387.51 301.651 387.69 300.851 388.05C300.051 388.41 299.331 388.88 298.691 389.46L297.371 387.9C298.171 387.2 299.081 386.63 300.101 386.19C301.121 385.73 302.251 385.5 303.491 385.5C304.391 385.5 305.221 385.61 305.981 385.83C306.761 386.05 307.431 386.37 307.991 386.79C308.571 387.19 309.021 387.69 309.341 388.29C309.661 388.89 309.821 389.58 309.821 390.36C309.821 391.52 309.441 392.47 308.681 393.21C307.921 393.95 306.941 394.52 305.741 394.92V395.04C306.381 395.18 306.981 395.39 307.541 395.67C308.121 395.93 308.631 396.27 309.071 396.69C309.511 397.09 309.851 397.56 310.091 398.1C310.351 398.64 310.481 399.24 310.481 399.9C310.481 400.74 310.301 401.5 309.941 402.18C309.581 402.86 309.081 403.44 308.441 403.92C307.821 404.38 307.091 404.74 306.251 405C305.411 405.24 304.511 405.36 303.551 405.36Z" fill="black"/>
<path d="M186.675 430V444L197.313 437L186.675 430Z" fill="black"/>
<path d="M206.016 445H209.885V431H206.016V445ZM213.753 431V445H217.621V431H213.753Z" fill="black"/>
<path d="M231.16 432H242.765V444H231.16V432Z" fill="black"/>
<g filter="url(#filter7_d)">
<rect x="18" y="123" width="180" height="55" fill="#C4C4C4"/>
</g>
<path d="M64.9216 157.216C64.0576 157.216 63.2596 157.06 62.5276 156.748C61.8076 156.436 61.1776 156.01 60.6376 155.47L61.5376 154.426C61.9816 154.87 62.4976 155.23 63.0856 155.506C63.6736 155.77 64.3096 155.902 64.9936 155.902C65.8096 155.902 66.4396 155.728 66.8836 155.38C67.3396 155.032 67.5676 154.582 67.5676 154.03C67.5676 153.718 67.5136 153.454 67.4056 153.238C67.2976 153.022 67.1476 152.836 66.9556 152.68C66.7636 152.524 66.5356 152.386 66.2716 152.266C66.0196 152.146 65.7436 152.02 65.4436 151.888L63.7516 151.15C63.4516 151.03 63.1516 150.886 62.8516 150.718C62.5516 150.55 62.2756 150.346 62.0236 150.106C61.7836 149.866 61.5856 149.584 61.4296 149.26C61.2736 148.924 61.1956 148.54 61.1956 148.108C61.1956 147.664 61.2916 147.25 61.4836 146.866C61.6756 146.482 61.9396 146.152 62.2756 145.876C62.6236 145.588 63.0316 145.366 63.4996 145.21C63.9796 145.054 64.5016 144.976 65.0656 144.976C65.8096 144.976 66.4936 145.114 67.1176 145.39C67.7416 145.654 68.2696 146.002 68.7016 146.434L67.9096 147.406C67.5256 147.058 67.0996 146.788 66.6316 146.596C66.1636 146.392 65.6236 146.29 65.0116 146.29C64.3276 146.29 63.7756 146.446 63.3556 146.758C62.9356 147.058 62.7256 147.478 62.7256 148.018C62.7256 148.306 62.7856 148.552 62.9056 148.756C63.0376 148.948 63.1996 149.122 63.3916 149.278C63.5956 149.422 63.8236 149.548 64.0756 149.656C64.3276 149.764 64.5796 149.872 64.8316 149.98L66.4876 150.7C66.8476 150.844 67.1836 151.012 67.4956 151.204C67.8196 151.384 68.0956 151.6 68.3236 151.852C68.5636 152.092 68.7496 152.38 68.8816 152.716C69.0256 153.04 69.0976 153.418 69.0976 153.85C69.0976 154.318 69.0016 154.756 68.8096 155.164C68.6176 155.572 68.3416 155.932 67.9816 156.244C67.6216 156.544 67.1836 156.784 66.6676 156.964C66.1516 157.132 65.5696 157.216 64.9216 157.216ZM74.8686 157V146.452H70.9806V145.192H80.2686V146.452H76.3806V157H74.8686ZM86.4176 157.216C85.7456 157.216 85.1336 157.078 84.5816 156.802C84.0296 156.514 83.5496 156.106 83.1416 155.578C82.7456 155.05 82.4336 154.408 82.2056 153.652C81.9896 152.884 81.8816 152.014 81.8816 151.042C81.8816 150.094 81.9896 149.242 82.2056 148.486C82.4336 147.73 82.7456 147.094 83.1416 146.578C83.5496 146.062 84.0296 145.666 84.5816 145.39C85.1336 145.114 85.7456 144.976 86.4176 144.976C87.0776 144.976 87.6836 145.114 88.2356 145.39C88.7996 145.666 89.2796 146.062 89.6756 146.578C90.0836 147.094 90.3956 147.73 90.6116 148.486C90.8396 149.242 90.9536 150.094 90.9536 151.042C90.9536 152.014 90.8396 152.884 90.6116 153.652C90.3956 154.408 90.0836 155.05 89.6756 155.578C89.2796 156.106 88.7996 156.514 88.2356 156.802C87.6836 157.078 87.0776 157.216 86.4176 157.216ZM86.4176 155.902C86.8616 155.902 87.2696 155.794 87.6416 155.578C88.0136 155.35 88.3256 155.026 88.5776 154.606C88.8416 154.186 89.0456 153.676 89.1896 153.076C89.3336 152.476 89.4056 151.798 89.4056 151.042C89.4056 150.298 89.3336 149.632 89.1896 149.044C89.0456 148.456 88.8416 147.958 88.5776 147.55C88.3256 147.142 88.0136 146.83 87.6416 146.614C87.2696 146.398 86.8616 146.29 86.4176 146.29C85.9616 146.29 85.5476 146.398 85.1756 146.614C84.8156 146.83 84.5036 147.142 84.2396 147.55C83.9876 147.958 83.7896 148.456 83.6456 149.044C83.5016 149.632 83.4296 150.298 83.4296 151.042C83.4296 151.798 83.5016 152.476 83.6456 153.076C83.7896 153.676 83.9876 154.186 84.2396 154.606C84.5036 155.026 84.8156 155.35 85.1756 155.578C85.5476 155.794 85.9616 155.902 86.4176 155.902ZM93.6465 157V145.192H97.2105C97.8585 145.192 98.4525 145.252 98.9925 145.372C99.5325 145.492 99.9945 145.69 100.379 145.966C100.763 146.23 101.057 146.584 101.261 147.028C101.477 147.472 101.585 148.018 101.585 148.666C101.585 149.29 101.477 149.83 101.261 150.286C101.057 150.742 100.757 151.12 100.361 151.42C99.9765 151.72 99.5145 151.948 98.9745 152.104C98.4465 152.248 97.8585 152.32 97.2105 152.32H95.1405V157H93.6465ZM95.1405 151.096H97.0305C98.0745 151.096 98.8425 150.904 99.3345 150.52C99.8265 150.124 100.073 149.506 100.073 148.666C100.073 147.814 99.8205 147.226 99.3165 146.902C98.8125 146.566 98.0505 146.398 97.0305 146.398H95.1405V151.096ZM104.584 157L102.784 145.174H104.476L105.34 152.59C105.364 152.842 105.388 153.07 105.412 153.274C105.436 153.478 105.454 153.688 105.466 153.904C105.49 154.108 105.508 154.324 105.52 154.552C105.544 154.78 105.562 155.038 105.574 155.326H105.628C105.676 155.038 105.724 154.78 105.772 154.552C105.82 154.324 105.862 154.108 105.898 153.904C105.946 153.688 105.994 153.478 106.042 153.274C106.09 153.07 106.144 152.848 106.204 152.608L107.356 148.216H108.796L109.912 152.608C109.972 152.848 110.026 153.07 110.074 153.274C110.122 153.478 110.164 153.688 110.2 153.904C110.248 154.108 110.29 154.324 110.326 154.552C110.374 154.78 110.428 155.038 110.488 155.326H110.56C110.572 155.038 110.584 154.78 110.596 154.552C110.62 154.324 110.638 154.108 110.65 153.904C110.674 153.688 110.692 153.478 110.704 153.274C110.728 153.07 110.752 152.848 110.776 152.608L111.604 145.174H113.224L111.496 157H109.624L108.472 152.248C108.376 151.888 108.292 151.534 108.22 151.186C108.16 150.838 108.1 150.484 108.04 150.124H107.986C107.926 150.484 107.866 150.838 107.806 151.186C107.746 151.534 107.668 151.888 107.572 152.248L106.42 157H104.584ZM117.572 150.394L117.014 152.194H120.542L119.984 150.394C119.78 149.734 119.576 149.08 119.372 148.432C119.18 147.772 118.994 147.1 118.814 146.416H118.742C118.55 147.1 118.358 147.772 118.166 148.432C117.974 149.08 117.776 149.734 117.572 150.394ZM113.972 157L117.95 145.192H119.642L123.62 157H122.036L120.92 153.4H116.636L115.502 157H113.972ZM128.833 157V146.452H124.945V145.192H134.233V146.452H130.345V157H128.833ZM141.3 157.216C140.568 157.216 139.89 157.078 139.266 156.802C138.642 156.526 138.096 156.13 137.628 155.614C137.172 155.086 136.812 154.444 136.548 153.688C136.284 152.92 136.152 152.056 136.152 151.096C136.152 150.148 136.284 149.296 136.548 148.54C136.812 147.784 137.178 147.142 137.646 146.614C138.114 146.086 138.672 145.684 139.32 145.408C139.968 145.12 140.676 144.976 141.444 144.976C142.152 144.976 142.776 145.12 143.316 145.408C143.868 145.696 144.318 146.032 144.666 146.416L143.82 147.37C143.508 147.046 143.16 146.788 142.776 146.596C142.392 146.392 141.948 146.29 141.444 146.29C140.88 146.29 140.364 146.404 139.896 146.632C139.44 146.848 139.05 147.166 138.726 147.586C138.402 147.994 138.15 148.492 137.97 149.08C137.79 149.668 137.7 150.328 137.7 151.06C137.7 151.804 137.79 152.476 137.97 153.076C138.15 153.664 138.402 154.168 138.726 154.588C139.05 155.008 139.44 155.332 139.896 155.56C140.364 155.788 140.88 155.902 141.444 155.902C141.984 155.902 142.464 155.788 142.884 155.56C143.316 155.332 143.724 155.008 144.108 154.588L144.954 155.506C144.486 156.046 143.958 156.466 143.37 156.766C142.782 157.066 142.092 157.216 141.3 157.216ZM147.197 157V145.192H148.709V150.142H153.641V145.192H155.153V157H153.641V151.438H148.709V157H147.197Z" fill="white"/>
</g>
<rect x="0.5" y="-0.5" width="412" height="732" transform="matrix(-1 0 0 1 413 1)" stroke="black" stroke-opacity="0.1"/>
<defs>
<filter id="filter0_d" x="210" y="123" width="188" height="63" filterUnits="userSpaceOnUse" color-interpolation-filters="sRGB">
<feFlood flood-opacity="0" result="BackgroundImageFix"/>
<feColorMatrix in="SourceAlpha" type="matrix" values="0 0 0 0 0 0 0 0 0 0 0 0 0 0 0 0 0 0 127 0"/>
<feOffset dy="4"/>
<feGaussianBlur stdDeviation="2"/>
<feColorMatrix type="matrix" values="0 0 0 0 0 0 0 0 0 0 0 0 0 0 0 0 0 0 0.25 0"/>
<feBlend mode="normal" in2="BackgroundImageFix" result="effect1_dropShadow"/>
<feBlend mode="normal" in="SourceGraphic" in2="effect1_dropShadow" result="shape"/>
</filter>
<filter id="filter1_d" x="11.3947" y="24.976" width="81.2538" height="20.24" filterUnits="userSpaceOnUse" color-interpolation-filters="sRGB">
<feFlood flood-opacity="0" result="BackgroundImageFix"/>
<feColorMatrix in="SourceAlpha" type="matrix" values="0 0 0 0 0 0 0 0 0 0 0 0 0 0 0 0 0 0 127 0"/>
<feOffset dy="4"/>
<feGaussianBlur stdDeviation="2"/>
<feColorMatrix type="matrix" values="0 0 0 0 0 0 0 0 0 0 0 0 0 0 0 0 0 0 0.25 0"/>
<feBlend mode="normal" in2="BackgroundImageFix" result="effect1_dropShadow"/>
<feBlend mode="normal" in="SourceGraphic" in2="effect1_dropShadow" result="shape"/>
</filter>
<filter id="filter2_d" x="163" y="105.001" width="73.0769" height="13.9994" filterUnits="userSpaceOnUse" color-interpolation-filters="sRGB">
<feFlood flood-opacity="0" result="BackgroundImageFix"/>
<feColorMatrix in="SourceAlpha" type="matrix" values="0 0 0 0 0 0 0 0 0 0 0 0 0 0 0 0 0 0 127 0"/>
<feOffset dy="4"/>
<feGaussianBlur stdDeviation="2"/>
<feColorMatrix type="matrix" values="0 0 0 0 0 0 0 0 0 0 0 0 0 0 0 0 0 0 0.25 0"/>
<feBlend mode="normal" in2="BackgroundImageFix" result="effect1_dropShadow"/>
<feBlend mode="normal" in="SourceGraphic" in2="effect1_dropShadow" result="shape"/>
</filter>
<filter id="filter3_d" x="325" y="653" width="58" height="58" filterUnits="userSpaceOnUse" color-interpolation-filters="sRGB">
<feFlood flood-opacity="0" result="BackgroundImageFix"/>
<feColorMatrix in="SourceAlpha" type="matrix" values="0 0 0 0 0 0 0 0 0 0 0 0 0 0 0 0 0 0 127 0"/>
<feOffset dy="4"/>
<feGaussianBlur stdDeviation="2"/>
<feColorMatrix type="matrix" values="0 0 0 0 0 0 0 0 0 0 0 0 0 0 0 0 0 0 0.25 0"/>
<feBlend mode="normal" in2="BackgroundImageFix" result="effect1_dropShadow"/>
<feBlend mode="normal" in="SourceGraphic" in2="effect1_dropShadow" result="shape"/>
</filter>
<filter id="filter4_d" x="338" y="666" width="32" height="32" filterUnits="userSpaceOnUse" color-interpolation-filters="sRGB">
<feFlood flood-opacity="0" result="BackgroundImageFix"/>
<feColorMatrix in="SourceAlpha" type="matrix" values="0 0 0 0 0 0 0 0 0 0 0 0 0 0 0 0 0 0 127 0"/>
<feOffset dy="4"/>
<feGaussianBlur stdDeviation="2"/>
<feColorMatrix type="matrix" values="0 0 0 0 0 0 0 0 0 0 0 0 0 0 0 0 0 0 0.25 0"/>
<feBlend mode="normal" in2="BackgroundImageFix" result="effect1_dropShadow"/>
<feBlend mode="normal" in="SourceGraphic" in2="effect1_dropShadow" result="shape"/>
</filter>
<filter id="filter5_d" x="14" y="237" width="384" height="105" filterUnits="userSpaceOnUse" color-interpolation-filters="sRGB">
<feFlood flood-opacity="0" result="BackgroundImageFix"/>
<feColorMatrix in="SourceAlpha" type="matrix" values="0 0 0 0 0 0 0 0 0 0 0 0 0 0 0 0 0 0 127 0"/>
<feOffset dy="4"/>
<feGaussianBlur stdDeviation="2"/>
<feColorMatrix type="matrix" values="0 0 0 0 0 0 0 0 0 0 0 0 0 0 0 0 0 0 0.25 0"/>
<feBlend mode="normal" in2="BackgroundImageFix" result="effect1_dropShadow"/>
<feBlend mode="normal" in="SourceGraphic" in2="effect1_dropShadow" result="shape"/>
</filter>
<filter id="filter6_d" x="14" y="353" width="384" height="105" filterUnits="userSpaceOnUse" color-interpolation-filters="sRGB">
<feFlood flood-opacity="0" result="BackgroundImageFix"/>
<feColorMatrix in="SourceAlpha" type="matrix" values="0 0 0 0 0 0 0 0 0 0 0 0 0 0 0 0 0 0 127 0"/>
<feOffset dy="4"/>
<feGaussianBlur stdDeviation="2"/>
<feColorMatrix type="matrix" values="0 0 0 0 0 0 0 0 0 0 0 0 0 0 0 0 0 0 0.25 0"/>
<feBlend mode="normal" in2="BackgroundImageFix" result="effect1_dropShadow"/>
<feBlend mode="normal" in="SourceGraphic" in2="effect1_dropShadow" result="shape"/>
</filter>
<filter id="filter7_d" x="14" y="123" width="188" height="63" filterUnits="userSpaceOnUse" color-interpolation-filters="sRGB">
<feFlood flood-opacity="0" result="BackgroundImageFix"/>
<feColorMatrix in="SourceAlpha" type="matrix" values="0 0 0 0 0 0 0 0 0 0 0 0 0 0 0 0 0 0 127 0"/>
<feOffset dy="4"/>
<feGaussianBlur stdDeviation="2"/>
<feColorMatrix type="matrix" values="0 0 0 0 0 0 0 0 0 0 0 0 0 0 0 0 0 0 0.25 0"/>
<feBlend mode="normal" in2="BackgroundImageFix" result="effect1_dropShadow"/>
<feBlend mode="normal" in="SourceGraphic" in2="effect1_dropShadow" result="shape"/>
</filter>
<clipPath id="clip0">
<rect width="411" height="731" transform="matrix(-1 0 0 1 412 1)" fill="white"/>
</clipPath>
</defs>
</svg>
